<?xml version="1.0" standalone="no"?><!DOCTYPE svg PUBLIC "-//W3C//DTD SVG 1.1//EN" "http://www.w3.org/Graphics/SVG/1.1/DTD/svg11.dtd"><svg t="1493219403291" class="icon" style="" viewBox="0 0 1024 1024" version="1.1" xmlns="http://www.w3.org/2000/svg" p-id="7192" xmlns:xlink="http://www.w3.org/1999/xlink" width="18" height="16"><defs><style type="text/css"></style></defs><path d="M929.86379 313.009411c-13.55052-32.265355-32.12474-61.348934-58.567889-88.185214 0.760501 4.793987 1.066222 7.088159 1.493977 9.359529 8.457568 44.954874 12.708521 90.044873 3.613332 135.439749-5.514373 27.522462-33.123822 73.343403-46.734304 98.60463a335.754776 335.754776 0 0 0-6.065008-3.609531c23.078533-43.262854-5.662589-79.379698-5.662589-79.379698s-1.518891 15.18469-20.093956 35.1621a591.344016 591.344016 0 0 1-3.416977 3.641201c-4.298669-13.944917-6.064586-27.475168-7.103783-33.925283-1.83348-16.592103-10.040644-22.637687-10.040644-22.637687-12.149863-12.149863-38.552475-18.809-38.552475-18.809-2.803847-0.817929-9.677073-2.80807-14.062729-4.581165-5.366158-2.169181-22.195152-13.076737-38.009019-23.668861 0.057006-0.522765 0.114856-1.049754 0.174396-1.581809 0.005067-0.004645 19.458445-18.54255 22.8636-28.464537 10.102717-29.439972-3.48074-70.445813-3.48074-70.445813s-4.673641-2.719394-18.309881 17.173141c-34.346704 41.356322-23.481797 24.533662-34.697186 44.79019-2.691947 4.86155-4.752183 8.798759-6.337792 11.987291-2.79329-1.689487-5.401206-3.256094-8.030657-4.780897-28.329412-16.423196-56.687961-32.796143-85.016528-49.220184-15.16611-8.792848-31.091033-10.104828-47.146858-3.505654-15.853137 6.515989-32.727314 11.962377-46.630004 21.541062-41.081849 28.304921-81.284118 57.936602-121.001625 88.139186-11.201454 8.517952-21.23703 14.215167-36.065327 13.579234-29.864349-1.280733-59.830043 0.030825-89.745064-0.377928-15.382733-0.210289-27.058391 5.212875-37.678807 16.537208-30.351645 32.364165-51.707332 69.485158-62.796462 112.4178-3.365461 13.029866-5.459479 26.395433-8.997647 39.372516l0.056584 1.762538c-3.821508 12.211936-24.170513 78.543611-23.58103 104.48173 0.666758 29.350029 4.670686 42.729532 6.319635 46.248698 1.648949 3.519166-6.412111-31.5285 1.298468-55.010298 7.710579-23.481797 17.659169-33.478103 17.65917-33.478103l-0.331901-19.689425 0.530366 16.551988c0.810751 5.17276 1.554362 10.357766 2.45041 15.516169 0.910406 5.2399 1.801387 10.492891 2.991333 15.672829 17.082776 74.352197 56.562548 137.169773 101.781761 196.977014 1.697088 2.244344 4.539783 5.99449 7.247353 6.018981 11.874968 1.148986 29.871106 2.216897 47.428509 2.624806l0.002956 0.003801s12.190401 1.032018 19.672957 0.140614a363.917393 363.917393 0 0 0 8.39465-0.186641c2.860008-0.077275 7.906089-0.281652 12.839424-0.816663 5.686658-0.587794 9.902563-1.451751 11.887636-2.661121 1.661195-0.920118 2.428875-2.598203 2.750641-3.602352 1.202614-2.411562 2.357512-5.766466 3.452026-9.660183 0.07643 0.001689 11.324333 0.254626 12.721612 0.034626 0.106411-0.016891 0.282496-0.03167 0.505452-0.046871 0.115701 0.010557 0.187064 0.005067 0.187064 0.005067s10.944716 0.28883 14.817318-2.784845c0.385529-0.262227 0.712785-0.548946 0.962767-0.86649 0.845377-1.074245 1.146453-1.877817 1.120272-2.694058 0.010979-0.209022-0.004645-0.329368-0.004645-0.329368s-0.016468-0.053628-0.045604-0.143993c-0.308677-1.768028-1.924267-3.838821-2.822427-8.938529-1.401924-7.959294-2.875632-29.189146-2.875633-29.189146l-0.164683 0.005067c21.418605-1.457663 35.195037-5.523241 60.693999-5.523241 0.67647 11.539266 9.634002 60.206282 15.532637 66.104496 2.982043 2.982043 29.790453 4.089225 56.548613 3.476517 0.104722 0.099655 0.168062 0.156238 0.168062 0.156238s14.20461 0.157505 21.610736-1.061999c2.029833-0.127102 4.016173-0.264761 5.94424-0.413821 0.290519-0.016891 20.819831-1.216971 27.342998-4.478555 2.619317-1.30987 2.802158-3.835443 2.803847-3.8536 1.208526-3.044117 1.969449-7.60079 2.468146-13.116008l4.804122-0.623265c4.276289-0.554858 11.376272-0.69885 19.80217-3.19191 3.573216-0.829753 7.778142-2.14469 9.997572-4.051221 2.518395-2.163692 2.730795-4.059244 2.730795-4.059244s-0.155816-0.519387-0.460692-1.314515c0.064607-0.909139 0.028292-1.846992 0.028292-2.822849 0-4.205771-4.205771-39.954399-3.504809-51.169787 0.700962-11.215388 78.398773-70.563625 78.398774-70.563625l-0.153705 0.093321c13.055202-8.257414 26.336738-14.20081 41.528606-15.184268 15.87425-1.027796 38.809213-2.335554 47.832618 0.853822 7.268889 2.569067 38.991632 17.751646 43.723124 14.237125 1.401924-10.504714-89.475236-70.319556-72.198218-119.853484 3.533523 27.440964 21.729393 53.973634 53.150215 67.758934 50.373393 22.100564 56.09721 55.560088 65.575818 73.565516 10.717114-2.769221 27.189716-24.609248 28.535056-26.025106 32.306314-34.005091 59.324168-37.034851 59.324168-90.000958 0-7.550963-2.085995-15.174133-5.658789-22.695115 20.99296-59.632422 40.110215-170.488681 12.27781-236.760816z m-241.169697-8.656034l0.000423 0.000423s-1.7144 13.232976-1.85586 14.468526c0.513053-4.580743 1.127451-9.492543 1.855437-14.468949z m-130.843804 421.857373c0.437468-0.252093 0.87578-0.503341 1.31367-0.755435-9.375575 5.399939-9.687207 7.285357-12.005448 12.97286-0.0038 0.00929-0.007601 0.022802-0.011401 0.032515 1.26891-6.606776 5.069727-9.00567 10.703179-12.24994z" fill="#666666" p-id="7193"></path></svg>