<?xml version="1.0" standalone="no"?><!DOCTYPE svg PUBLIC "-//W3C//DTD SVG 1.1//EN" "http://www.w3.org/Graphics/SVG/1.1/DTD/svg11.dtd"><svg t="1493174381155" class="icon" style="" viewBox="0 0 1024 1024" version="1.1" xmlns="http://www.w3.org/2000/svg" p-id="6202" xmlns:xlink="http://www.w3.org/1999/xlink" width="20" height="20"><defs><style type="text/css"></style></defs><path d="M461.480908 155.695015c0 0 0 2.574638 0 4.977361l0 727.647455c0 7.468089-2.572592 12.44545-7.55507 12.44545l-77.260641 0c-4.978385 0-7.384178-4.977361-7.384178-12.44545L369.281019 322.667887l-82.243119 144.479579c-7.55507 12.537548-17.510816 12.537548-24.894993 5.065366l-39.920198-47.387263c-7.468089-7.468089-9.956769-24.894993-2.489704-34.853809L391.604444 85.983303c5.061272-9.957793 17.509792-12.532431 24.977881-4.977361l39.921221 47.302329C461.480908 135.778406 463.886701 145.734152 461.480908 155.695015L461.480908 155.695015z" p-id="6203" fill="#1296db"></path><path d="M561.151955 841.014432c0 0 0-2.488681 0-4.977361L561.151955 108.391662c0-7.469112 4.977361-12.447497 9.960863-12.447497l74.683956 0c5.064342 0 10.042727 4.977361 10.042727 12.447497l0 565.651944 82.159208-144.56963c5.061272-12.444427 17.511839-12.444427 24.977881-4.977361l39.83424 47.388287c7.471159 7.467065 7.471159 24.894993 2.493797 34.854832L633.351324 910.72512c-7.472182 10.04375-17.426905 12.532431-24.90011 4.977361l-39.832194-47.300282C563.640636 860.931041 561.151955 850.976318 561.151955 841.014432L561.151955 841.014432z" p-id="6204" fill="#1296db"></path></svg>