<?xml version="1.0" standalone="no"?><!DOCTYPE svg PUBLIC "-//W3C//DTD SVG 1.1//EN" "http://www.w3.org/Graphics/SVG/1.1/DTD/svg11.dtd"><svg t="1493174447841" class="icon" style="" viewBox="0 0 1024 1024" version="1.1" xmlns="http://www.w3.org/2000/svg" p-id="7013" xmlns:xlink="http://www.w3.org/1999/xlink" width="20" height="20"><defs><style type="text/css"></style></defs><path d="M480 172.8c128 0 224 108.8 224 243.2 0 89.6-128 281.6-224 409.6C377.6 697.6 256 505.6 256 416 256 281.6 352 172.8 480 172.8M480 128C326.4 128 204.8 256 204.8 416c0 160 275.2 480 275.2 480s275.2-320 275.2-480C755.2 256 633.6 128 480 128L480 128z" p-id="7014" fill="#1296db"></path><path d="M480 275.2c44.8 0 89.6 44.8 89.6 83.2S524.8 435.2 480 435.2 390.4 390.4 390.4 358.4 435.2 275.2 480 275.2M480 243.2c-64 0-121.6 57.6-121.6 115.2s51.2 115.2 121.6 115.2 121.6-57.6 121.6-115.2S544 243.2 480 243.2L480 243.2z" p-id="7015" fill="#1296db"></path></svg>