<?xml version="1.0" standalone="no"?><!DOCTYPE svg PUBLIC "-//W3C//DTD SVG 1.1//EN" "http://www.w3.org/Graphics/SVG/1.1/DTD/svg11.dtd"><svg t="1493179349640" class="icon" style="" viewBox="0 0 1024 1024" version="1.1" xmlns="http://www.w3.org/2000/svg" p-id="2919" xmlns:xlink="http://www.w3.org/1999/xlink" width="20" height="20"><defs><style type="text/css"></style></defs><path d="M869.605096 569.151651c-3.049452-173.98559-171.457-304.812217-171.457-304.812217s47.145763 98.660021-19.047822 171.457c0 0-88.964194-276.655947-247.65852-342.911954 0 0 48.857754 251.28614-133.35624 400.062582 0 0 18.895349-46.908356-38.099736-133.351124 0 0 11.81714 60.711733-76.203566 209.555713-88.01252 148.84398 44.372603 291.576775 95.25548 323.857992 50.883901 32.293497 76.200496 38.10383 76.200497 38.10383s-90.329285-76.909647-19.047822-190.506868c71.281463-113.598244 76.198449-190.507892 76.198449-190.507892s43.738154 55.730279 19.057032 114.304326c0 0 124.998899-73.486688 95.247294-228.607628 0 0 156.937309 78.023004 152.408155 266.711457-3.450589 143.57293-57.150628 228.606605-57.150628 228.606605s252.563226-82.229816 247.654427-361.961822z" p-id="2920" fill="#d55b93"></path></svg>