<?xml version="1.0" standalone="no"?><!DOCTYPE svg PUBLIC "-//W3C//DTD SVG 1.1//EN" "http://www.w3.org/Graphics/SVG/1.1/DTD/svg11.dtd">
<svg t="1493218236935" class="icon" style="" viewBox="0 0 1024 1024" version="1.1" xmlns="http://www.w3.org/2000/svg" p-id="6359" xmlns:xlink="http://www.w3.org/1999/xlink" width="18" height="16">
<defs>
<style type="text/css"></style>
</defs>
<path d="M899.051755 462.343043c-0.923022-16.525372-5.037736-32.870642-7.679913-49.296753-5.145184 12.039197-7.564279 23.960715-9.997702 35.878139-19.792788 97.005334-86.182848 153.957441-185.317683 160.215982-8.416693 0.530073-18.525935 5.680373-24.233937 11.963473-20.617573 22.703071-32.010041 26.823925-60.424184 15.033391-17.502629-7.262404-34.390251-11.329023-53.711296-7.320733-26.754341 5.548366-39.552831-0.835018-51.192939-26.065655-8.570189-18.576077-21.979594-28.556383-40.811498-34.259268-48.986691-14.82873-82.899058-47.269583-100.527554-94.547353-34.322713-92.051509-10.882861-175.159322 43.405579-252.436336 5.634324-8.018627 13.103436-12.411681 23.165606-7.360641 13.498432 6.77531 24.866341 1.540076 36.127825-5.900384 20.950148-13.836123 42.379203-26.974351 62.949704-41.343617 5.91164-4.130064 12.371772-10.881838 13.789051-17.461697 7.487531-34.756595-27.208689-83.830267-62.437028-87.318718-38.065967-3.770883-65.795519 15.192004-85.446068 46.115294-16.121166 25.374924-13.486152 51.408857 2.799766 75.896574 7.018857 10.54517 6.387477 17.912975-4.182252 25.355481-9.595542 6.758937-18.422581 14.642488-27.362184 22.296819-58.150398 49.78794-88.89154 112.839974-91.25333 189.482539-0.724501 23.538089 0.446162 47.242977-1.929955 70.597895-4.158716 40.883129-9.359158 81.505315 4.713348 121.590266 1.288343 3.672646 1.966795 7.662517 2.252297 11.553127 0.845251 11.517311-4.546549 14.297634-14.389732 9.392928-3.987824-1.983167-7.670703-4.644787-11.325953-7.229658-35.461653-25.110911-59.284221-59.543118-76.574003-98.526991-43.38409-97.80863-39.814798-191.833073 25.301246-279.900851 9.105379-12.316513 20.069081-23.26282 30.169113-34.841529-41.689495 21.884426-71.188342 55.79884-93.50665 95.694479-25.676799 45.896306-39.404452 95.658663-36.352953 148.553361 3.670599 63.62304 5.317099 127.782292 15.46625 190.477192 6.960529 42.995233 24.88783 84.71952 41.600467 125.501342 20.621667 50.325176 57.956993 80.029708 115.154693 79.831186 45.722344-0.157589 55.485709-13.210883 42.643216-56.357566-5.734608-19.267832-9.759271-39.144532-12.979616-58.996672-0.876973-5.41329 3.976568-11.753695 6.201236-17.668405 4.50664 4.357238 10.599406 7.92653 13.230326 13.218046 9.235338 18.578124 17.015535 37.866423 25.825179 56.666604 23.069415 49.229215 44.3593 99.741655 88.903819 134.763286 49.016367 38.537711 103.56882 48.659233 162.900114 29.665647 22.101367-7.075139 26.254967-16.010649 16.344247-36.71418-15.974833-33.381271-24.457018-68.514443-28.186969-104.931864-3.473101-33.884738-2.902096-67.895343 14.829753-98.103342 5.497201-9.362228 17.71036-19.061125 27.888164-20.34742 13.547551-1.706875 21.928429 12.609179 22.960944 24.750707 2.491751 29.337165 3.641947 58.975183 2.474354 88.375793-0.902556 22.741957-8.002254 45.235251-8.976442 67.982324-1.222851 28.572756 16.971533 50.519604 41.771359 48.800449 46.290279-3.196809 87.903026-17.84953 112.237247-61.97654 22.769586-41.289382 41.085744-84.278475 56.333006-129.147382C891.747395 645.49848 904.238894 555.236733 899.051755 462.343043z" p-id="6360"></path>
<path d="M860.550883 118.591979c-22.375613-13.783934-46.951335-15.728216-70.429049-3.02694-24.035416 13.007245-37.165458 34.552957-42.818201 65.798589 3.51915 5.16565 7.237845 13.81361 13.629415 19.407002 19.24225 16.836457 40.536228 31.417547 59.058071 48.958038 13.290701 12.591783 26.600845 14.518668 40.906665 6.189979 20.428262-11.888771 35.557844-29.186739 41.197284-52.782134C909.453662 172.34523 893.32738 138.785903 860.550883 118.591979z" p-id="6361"></path>
<path d="M737.626225 390.153908c-15.09786-7.877411-31.193443-9.244548-43.639916 3.362584-14.012132 14.196327-30.200836 31.099299-23.309892 52.410674 7.810896 24.161283 20.869307 46.88175 33.751708 69.000514 4.617158 7.931646 15.371082 12.284791 19.35379 15.280008 22.611997-1.073448 35.93749-7.497765 44.87607-21.001313C792.149003 473.727325 775.446599 409.883251 737.626225 390.153908z" p-id="6362"></path>
<path d="M549.043173 380.362914c-9.155521-20.125363-27.591405-28.090778-48.478108-21.050432-35.251875 11.881608-58.316174 44.172035-58.32129 81.639369-0.002047 26.856671 11.30344 45.995567 30.933523 52.375881 18.810415 6.111185 34.025954-1.312902 51.587935-24.963555 4.66423-6.277984 8.832156-13.276375 14.657838-18.279319C563.448254 429.462169 560.521598 405.592528 549.043173 380.362914z" p-id="6363"></path>
<path d="M625.647875 561.448202c-18.324344-4.621251-37.150108-7.249101-57.130162-10.883885-6.584975 2.058892-14.57802 3.189645-21.051455 6.944156-7.184633 4.167926-8.022721 11.5695 0.14224 15.797801 24.471344 12.669554 47.632857 35.468816 77.893045 12.594853 4.89345-3.693112 9.476839-7.801686 14.201443-11.714809C635.057175 569.785078 631.060141 562.810223 625.647875 561.448202z" p-id="6364"></path>
<path d="M899.051755 462.343043c-0.923022-16.525372-5.037736-32.870642-7.679913-49.296753-5.145184 12.039197-7.564279 23.960715-9.997702 35.878139-19.792788 97.005334-86.182848 153.957441-185.317683 160.215982-8.416693 0.530073-18.525935 5.680373-24.233937 11.963473-20.617573 22.703071-32.010041 26.823925-60.424184 15.033391-17.502629-7.262404-34.390251-11.329023-53.711296-7.320733-26.754341 5.548366-39.552831-0.835018-51.192939-26.065655-8.570189-18.576077-21.979594-28.556383-40.811498-34.259268-48.986691-14.82873-82.899058-47.269583-100.527554-94.547353-34.322713-92.051509-10.882861-175.159322 43.405579-252.436336 5.634324-8.018627 13.103436-12.411681 23.165606-7.360641 13.498432 6.77531 24.866341 1.540076 36.127825-5.900384 20.950148-13.836123 42.379203-26.974351 62.949704-41.343617 5.91164-4.130064 12.371772-10.881838 13.789051-17.461697 7.487531-34.756595-27.208689-83.830267-62.437028-87.318718-38.065967-3.770883-65.795519 15.192004-85.446068 46.115294-16.121166 25.374924-13.486152 51.408857 2.799766 75.896574 7.018857 10.54517 6.387477 17.912975-4.182252 25.355481-9.595542 6.758937-18.422581 14.642488-27.362184 22.296819-58.150398 49.78794-88.89154 112.839974-91.25333 189.482539-0.724501 23.538089 0.446162 47.242977-1.929955 70.597895-4.158716 40.883129-9.359158 81.505315 4.713348 121.590266 1.288343 3.672646 1.966795 7.662517 2.252297 11.553127 0.845251 11.517311-4.546549 14.297634-14.389732 9.392928-3.987824-1.983167-7.670703-4.644787-11.325953-7.229658-35.461653-25.110911-59.284221-59.543118-76.574003-98.526991-43.38409-97.80863-39.814798-191.833073 25.301246-279.900851 9.105379-12.316513 20.069081-23.26282 30.169113-34.841529-41.689495 21.884426-71.188342 55.79884-93.50665 95.694479-25.676799 45.896306-39.404452 95.658663-36.352953 148.553361 3.670599 63.62304 5.317099 127.782292 15.46625 190.477192 6.960529 42.995233 24.88783 84.71952 41.600467 125.501342 20.621667 50.325176 57.956993 80.029708 115.154693 79.831186 45.722344-0.157589 55.485709-13.210883 42.643216-56.357566-5.734608-19.267832-9.759271-39.144532-12.979616-58.996672-0.876973-5.41329 3.976568-11.753695 6.201236-17.668405 4.50664 4.357238 10.599406 7.92653 13.230326 13.218046 9.235338 18.578124 17.015535 37.866423 25.825179 56.666604 23.069415 49.229215 44.3593 99.741655 88.903819 134.763286 49.016367 38.537711 103.56882 48.659233 162.900114 29.665647 22.101367-7.075139 26.254967-16.010649 16.344247-36.71418-15.974833-33.381271-24.457018-68.514443-28.186969-104.931864-3.473101-33.884738-2.902096-67.895343 14.829753-98.103342 5.497201-9.362228 17.71036-19.061125 27.888164-20.34742 13.547551-1.706875 21.928429 12.609179 22.960944 24.750707 2.491751 29.337165 3.641947 58.975183 2.474354 88.375793-0.902556 22.741957-8.002254 45.235251-8.976442 67.982324-1.222851 28.572756 16.971533 50.519604 41.771359 48.800449 46.290279-3.196809 87.903026-17.84953 112.237247-61.97654 22.769586-41.289382 41.085744-84.278475 56.333006-129.147382C891.747395 645.49848 904.238894 555.236733 899.051755 462.343043z" p-id="6365"></path>
<path d="M537.604656 636.828007c5.785773 23.907503 26.38595 37.217646 54.104245 36.125779 22.011316-0.865717 34.145681-9.252735 36.358069-24.178679C598.394161 644.858914 568.712141 640.938628 537.604656 636.828007z" p-id="6366"></path>
<path d="M860.550883 118.591979c-22.375613-13.783934-46.951335-15.728216-70.429049-3.02694-24.035416 13.007245-37.165458 34.552957-42.818201 65.798589 3.51915 5.16565 7.237845 13.81361 13.629415 19.407002 19.24225 16.836457 40.536228 31.417547 59.058071 48.958038 13.290701 12.591783 26.600845 14.518668 40.906665 6.189979 20.428262-11.888771 35.557844-29.186739 41.197284-52.782134C909.453662 172.34523 893.32738 138.785903 860.550883 118.591979z" p-id="6367"></path>
<path d="M737.626225 390.153908c-15.09786-7.877411-31.193443-9.244548-43.639916 3.362584-14.012132 14.196327-30.200836 31.099299-23.309892 52.410674 7.810896 24.161283 20.869307 46.88175 33.751708 69.000514 4.617158 7.931646 15.371082 12.284791 19.35379 15.280008 22.611997-1.073448 35.93749-7.497765 44.87607-21.001313C792.149003 473.727325 775.446599 409.883251 737.626225 390.153908z" p-id="6368"></path>
<path d="M549.043173 380.362914c-9.155521-20.125363-27.591405-28.090778-48.478108-21.050432-35.251875 11.881608-58.316174 44.172035-58.32129 81.639369-0.002047 26.856671 11.30344 45.995567 30.933523 52.375881 18.810415 6.111185 34.025954-1.312902 51.587935-24.963555 4.66423-6.277984 8.832156-13.276375 14.657838-18.279319C563.448254 429.462169 560.521598 405.592528 549.043173 380.362914z" p-id="6369"></path>
<path d="M625.647875 561.448202c-18.324344-4.621251-37.150108-7.249101-57.130162-10.883885-6.584975 2.058892-14.57802 3.189645-21.051455 6.944156-7.184633 4.167926-8.022721 11.5695 0.14224 15.797801 24.471344 12.669554 47.632857 35.468816 77.893045 12.594853 4.89345-3.693112 9.476839-7.801686 14.201443-11.714809C635.057175 569.785078 631.060141 562.810223 625.647875 561.448202z" p-id="6370"></path>
<path d="M537.604656 636.828007c5.785773 23.907503 26.38595 37.217646 54.104245 36.125779 22.011316-0.865717 34.145681-9.252735 36.358069-24.178679C598.394161 644.858914 568.712141 640.938628 537.604656 636.828007z" p-id="6371"></path>
</svg>