<svg xmlns="http://www.w3.org/2000/svg" xmlns:xlink="http://www.w3.org/1999/xlink" style="background:#fff" viewBox="0 0 1080 1693"><defs><path id="b" d="M1 0h216v1148H1z"/><filter id="a" width="200%" height="200%" x="-50%" y="-50%" filterUnits="objectBoundingBox"><feOffset dx="1" in="SourceAlpha" result="shadowOffsetOuter1"/><feColorMatrix in="shadowOffsetOuter1" values="0 0 0 0 0.933333333 0 0 0 0 0.933333333 0 0 0 0 0.933333333 0 0 0 1 0"/></filter><path id="d" d="M0 0h215v147.276H0z"/><filter id="c" width="200%" height="200%" x="-50%" y="-50%" filterUnits="objectBoundingBox"><feOffset dy="1" in="SourceAlpha" result="shadowOffsetOuter1"/><feColorMatrix in="shadowOffsetOuter1" values="0 0 0 0 0.933333333 0 0 0 0 0.933333333 0 0 0 0 0.933333333 0 0 0 1 0"/></filter><path id="f" d="M0 0h215v147.276H0z"/><filter id="e" width="200%" height="200%" x="-50%" y="-50%" filterUnits="objectBoundingBox"><feOffset dy="1" in="SourceAlpha" result="shadowOffsetOuter1"/><feColorMatrix in="shadowOffsetOuter1" values="0 0 0 0 0.933333333 0 0 0 0 0.933333333 0 0 0 0 0.933333333 0 0 0 1 0"/></filter><path id="h" d="M0 0h215v147.276H0z"/><filter id="g" width="200%" height="200%" x="-50%" y="-50%" filterUnits="objectBoundingBox"><feOffset dy="1" in="SourceAlpha" result="shadowOffsetOuter1"/><feColorMatrix in="shadowOffsetOuter1" values="0 0 0 0 0.933333333 0 0 0 0 0.933333333 0 0 0 0 0.933333333 0 0 0 1 0"/></filter><path id="j" d="M0 0h215v147.276H0z"/><filter id="i" width="200%" height="200%" x="-50%" y="-50%" filterUnits="objectBoundingBox"><feOffset dy="1" in="SourceAlpha" result="shadowOffsetOuter1"/><feColorMatrix in="shadowOffsetOuter1" values="0 0 0 0 0.933333333 0 0 0 0 0.933333333 0 0 0 0 0.933333333 0 0 0 1 0"/></filter><path id="l" d="M0 0h215v147.276H0z"/><filter id="k" width="200%" height="200%" x="-50%" y="-50%" filterUnits="objectBoundingBox"><feOffset dy="1" in="SourceAlpha" result="shadowOffsetOuter1"/><feColorMatrix in="shadowOffsetOuter1" values="0 0 0 0 0.933333333 0 0 0 0 0.933333333 0 0 0 0 0.933333333 0 0 0 1 0"/></filter><path id="n" d="M0 0h215v147.276H0z"/><filter id="m" width="200%" height="200%" x="-50%" y="-50%" filterUnits="objectBoundingBox"><feOffset dy="1" in="SourceAlpha" result="shadowOffsetOuter1"/><feColorMatrix in="shadowOffsetOuter1" values="0 0 0 0 0.933333333 0 0 0 0 0.933333333 0 0 0 0 0.933333333 0 0 0 1 0"/></filter><rect id="o" width="168" height="158.605" rx="12"/><rect id="p" width="168" height="158.605" rx="12"/><rect id="q" width="168" height="158.605" rx="12"/><rect id="r" width="168" height="158.911" rx="12"/><rect id="s" width="168" height="158.911" rx="12"/><path id="u" d="M0 0h1080v120H0z"/><filter id="t" width="200%" height="200%" x="-50%" y="-50%" filterUnits="objectBoundingBox"><feOffset dy="1" in="SourceAlpha" result="shadowOffsetOuter1"/><feColorMatrix in="shadowOffsetOuter1" values="0 0 0 0 0.933333333 0 0 0 0 0.933333333 0 0 0 0 0.933333333 0 0 0 1 0"/></filter><path id="v" d="M0 0h1080v426H0z"/></defs><g fill="none" fill-rule="evenodd"><g transform="translate(-1 546)"><use fill="#000" filter="url(#a)" xlink:href="#b"/><use fill="#F6F6F6" xlink:href="#b"/></g><g transform="translate(0 693.276)"><use fill="#000" filter="url(#c)" xlink:href="#d"/><use fill="#F6F6F6" xlink:href="#d"/></g><path fill="#eee" d="M29 749.921h144v33.987H29z"/><g transform="translate(0 546)"><use fill="#000" filter="url(#e)" xlink:href="#f"/><use fill="#F6F6F6" xlink:href="#f"/></g><path fill="#eee" d="M29 602.645h144v33.987H29z"/><g transform="translate(-1 841)"><use fill="#000" filter="url(#g)" xlink:href="#h"/><use fill="#F6F6F6" xlink:href="#h"/></g><path fill="#eee" d="M28 897.645h144v33.987H28z"/><g><g transform="translate(-1 989)"><use fill="#000" filter="url(#i)" xlink:href="#j"/><use fill="#F6F6F6" xlink:href="#j"/></g><path fill="#eee" d="M28 1045.645h144v33.987H28z"/></g><g><g transform="translate(-1 1137)"><use fill="#000" filter="url(#k)" xlink:href="#l"/><use fill="#F6F6F6" xlink:href="#l"/></g><path fill="#eee" d="M28 1193.645h144v33.987H28z"/></g><g><g transform="translate(-1 1285)"><use fill="#000" filter="url(#m)" xlink:href="#n"/><use fill="#F6F6F6" xlink:href="#n"/></g><path fill="#eee" d="M28 1341.645h144v33.987H28z"/></g><g><path fill="#EEE" d="M248 779.188h833v.944H248z"/><g transform="translate(981 683.836)"><ellipse cx="35" cy="33.043" fill="#eee" rx="35" ry="33.043"/><path fill="#FFF" d="M32.168 30.21H19.825A2.826 2.826 0 0 0 17 33.044a2.83 2.83 0 0 0 2.825 2.832h12.343v12.343A2.826 2.826 0 0 0 35 51.043a2.83 2.83 0 0 0 2.832-2.825V35.875h12.343A2.826 2.826 0 0 0 53 33.043a2.83 2.83 0 0 0-2.825-2.832H37.832V17.868A2.826 2.826 0 0 0 35 15.043a2.83 2.83 0 0 0-2.832 2.825V30.21z"/></g><path fill="#eee" d="M446 698.94h80v39.652h-80zM446 638.52h300v28.322H446z"/><use fill="#eee" transform="translate(248 578.099)" xlink:href="#o"/><path fill="#eee" d="M446 578.099h400v39.65H446z"/><g><path fill="#EEE" d="M248 1023.704h833v.944H248z"/><g transform="translate(981 928.352)"><ellipse cx="35" cy="33.043" fill="#eee" rx="35" ry="33.043"/><path fill="#FFF" d="M32.168 30.21H19.825A2.826 2.826 0 0 0 17 33.044a2.83 2.83 0 0 0 2.825 2.832h12.343v12.343A2.826 2.826 0 0 0 35 51.043a2.83 2.83 0 0 0 2.832-2.825V35.875h12.343A2.826 2.826 0 0 0 53 33.043a2.83 2.83 0 0 0-2.825-2.832H37.832V17.868A2.826 2.826 0 0 0 35 15.043a2.83 2.83 0 0 0-2.832 2.825V30.21z"/></g><path fill="#eee" d="M446 943.457h80v39.651h-80zM446 883.036h300v28.322H446z"/><use fill="#eee" transform="translate(248 822.615)" xlink:href="#p"/><path fill="#eee" d="M446 822.615h400v39.651H446z"/></g><g><path fill="#EEE" d="M248 1268.22h833v.945H248z"/><g transform="translate(981 1172.868)"><ellipse cx="35" cy="33.043" fill="#eee" rx="35" ry="33.043"/><path fill="#FFF" d="M32.168 30.21H19.825A2.826 2.826 0 0 0 17 33.044a2.83 2.83 0 0 0 2.825 2.832h12.343v12.343A2.826 2.826 0 0 0 35 51.043a2.83 2.83 0 0 0 2.832-2.825V35.875h12.343A2.826 2.826 0 0 0 53 33.043a2.83 2.83 0 0 0-2.825-2.832H37.832V17.868A2.826 2.826 0 0 0 35 15.043a2.83 2.83 0 0 0-2.832 2.825V30.21z"/></g><path fill="#eee" d="M446 1187.974h80v39.65h-80zM446 1127.553h300v28.322H446z"/><use fill="#eee" transform="translate(248 1067.132)" xlink:href="#q"/><path fill="#eee" d="M446 1067.132h400v39.65H446z"/></g><g><path fill="#EEE" d="M248 1513.124h833v.946H248z"/><g transform="translate(981 1417.589)"><ellipse cx="35" cy="33.106" fill="#eee" rx="35" ry="33.106"/><path fill="#FFF" d="M32.162 30.269H19.84a2.838 2.838 0 1 0 0 5.675h12.322v12.323a2.838 2.838 0 1 0 5.676 0V35.944H50.16a2.838 2.838 0 1 0 0-5.675H37.838V17.946a2.838 2.838 0 1 0-5.676 0V30.27z"/></g><path fill="#eee" d="M446 1432.723h80v39.728h-80zM446 1372.185h300v28.377H446z"/><use fill="#eee" transform="translate(248 1311.648)" xlink:href="#r"/><path fill="#eee" d="M446 1311.648h400v39.728H446z"/></g><g><g transform="translate(981 1647.04)"><ellipse cx="35" cy="33.106" fill="#eee" rx="35" ry="33.106"/><path fill="#FFF" d="M32.162 30.269H19.84a2.838 2.838 0 1 0 0 5.675h12.322v12.323a2.838 2.838 0 1 0 5.676 0V35.944H50.16a2.838 2.838 0 1 0 0-5.675H37.838V17.946a2.838 2.838 0 1 0-5.676 0V30.27z"/></g><path fill="#eee" d="M446 1662.174h80v39.728h-80zM446 1601.636h300v28.377H446z"/><use fill="#eee" transform="translate(248 1541.099)" xlink:href="#s"/><path fill="#eee" d="M446 1541.099h400v39.728H446z"/></g></g><g><g transform="translate(0 426)"><use fill="#000" filter="url(#t)" xlink:href="#u"/><use fill="#FFF" xlink:href="#u"/></g><path fill="#eee" d="M246 461h94v50h-94zM798 461h94v50h-94z"/></g><g><mask id="w" fill="#fff"><use xlink:href="#v"/></mask><use fill="#eee" xlink:href="#v"/><path fill="#F6F6F6" d="M328 47h600v61.6H328zM328 129h500v40.12H328zM328 228h704v38.185H328zM45 342.471h990v50.118H45z" mask="url(#w)"/><rect width="200" height="200" x="45" y="47" fill="#F6F6F6" mask="url(#w)" rx="6"/></g></g></svg>