<?xml version="1.0" standalone="no"?><!DOCTYPE svg PUBLIC "-//W3C//DTD SVG 1.1//EN" "http://www.w3.org/Graphics/SVG/1.1/DTD/svg11.dtd"><svg t="1494232758543" class="icon" style="" viewBox="0 0 1024 1024" version="1.1" xmlns="http://www.w3.org/2000/svg" p-id="2894" xmlns:xlink="http://www.w3.org/1999/xlink" width="32" height="32"><defs><style type="text/css"></style></defs><path d="M512 0C230.11236 0 0 230.11236 0 512c0 281.88764 230.11236 512 512 512 281.88764 0 512-230.11236 512-512C1024 230.11236 793.88764 0 512 0M241.617978 207.101124c0-17.258427 11.505618-28.764045 28.764045-28.764045l471.730337 0c17.258427 0 28.764045 11.505618 28.764045 28.764045l0 51.775281c0 17.258427-11.505618 28.764045-28.764045 28.764045L270.382022 287.640449c-17.258427 0-28.764045-11.505618-28.764045-28.764045L241.617978 207.101124zM638.561798 632.808989l0 247.370787L391.191011 880.179775 391.191011 632.808989 235.865169 632.808989l270.382022-299.146067 270.382022 299.146067L638.561798 632.808989z" p-id="2895" fill="#ffffff"></path></svg>