<?xml version="1.0" standalone="no"?><!DOCTYPE svg PUBLIC "-//W3C//DTD SVG 1.1//EN" "http://www.w3.org/Graphics/SVG/1.1/DTD/svg11.dtd"><svg t="1493174631073" class="icon" style="" viewBox="0 0 1024 1024" version="1.1" xmlns="http://www.w3.org/2000/svg" p-id="9496" xmlns:xlink="http://www.w3.org/1999/xlink" width="20" height="20"><defs><style type="text/css"></style></defs><path d="M846.277808 177.047322C761.081427 91.982948 647.939577 45.116547 527.538393 45.116547c-120.402207 0-233.587036 46.866401-318.695413 131.9758C123.647623 262.199701 76.781222 375.339504 76.781222 495.739665c-0.044002 120.401184 46.822398 233.543034 131.9758 318.696436 85.10633 85.021395 198.292182 131.931798 318.695413 131.931798 120.44314 0 233.631038-46.955428 318.825372-131.9758C1021.950829 638.674051 1021.950829 352.853373 846.277808 177.047322L846.277808 177.047322 846.277808 177.047322zM804.734646 772.803911c-74.106812 74.107835-172.59287 114.89989-277.285281 114.89989-104.691387 0-203.133444-40.791032-277.151227-114.76686-74.018807-74.019831-114.768907-172.504866-114.768907-277.197276 0-104.690364 40.749076-203.133444 114.812909-277.108249 74.017784-74.017784 172.460864-114.810862 277.196253-114.810862 104.692411 0 203.134467 40.793078 277.196253 114.810862C957.525518 371.424334 957.525518 620.060111 804.734646 772.803911L804.734646 772.803911 804.734646 772.803911zM722.267423 606.15338l-155.783019-90.080621L566.484404 270.429129c0-20.683065-16.854876-37.538965-37.581943-37.538965-20.72809 0-37.539988 16.854876-37.539988 37.538965l0 262.850523c0 13.94971 17.3389 25.653263 28.561499 32.080649 3.124154 4.709255 11.704576 8.93244 16.942881 11.924587l154.943908 93.909833c17.912975 10.342556 37.410028 4.181229 47.748491-13.772678C749.947855 639.46609 740.309334 616.493889 722.267423 606.15338L722.267423 606.15338 722.267423 606.15338z" p-id="9497" fill="#7194ee"></path></svg>