<?xml version="1.0" standalone="no"?><!DOCTYPE svg PUBLIC "-//W3C//DTD SVG 1.1//EN" "http://www.w3.org/Graphics/SVG/1.1/DTD/svg11.dtd"><svg t="1493174589076" class="icon" style="" viewBox="0 0 1024 1024" version="1.1" xmlns="http://www.w3.org/2000/svg" p-id="8685" xmlns:xlink="http://www.w3.org/1999/xlink" width="20" height="20"><defs><style type="text/css"></style></defs><path d="M512.003 21.013C241.271 21.013 21.014 241.269 21.014 512c0 270.73 220.257 490.986 490.989 490.986 270.729 0 490.982-220.256 490.982-490.986C1002.985 241.269 782.731 21.013 512.003 21.013zM512.003 948.322C271.351 948.322 75.565 752.589 75.565 512c0-240.609 195.785-436.359 436.438-436.359 240.586 0 436.317 195.75 436.317 436.359C948.32 752.589 752.589 948.322 512.003 948.322z" p-id="8686" fill="#f4ea2a"></path><path d="M635.951 241.293 532.771 442.188c-9.897 19.494-17.606 35.706-23.723 48.533-5.77-13.226-12.829-28.044-21.929-45.051L377.971 241.293l-90.253 0 150.123 276.382L316.854 517.675l0 71.804 152.963 0 0 41.372L316.854 630.851l0 68.322 152.963 0 0 126.061 81.051 0L550.868 699.173l152.114 0 0-68.322L550.868 630.851l0-41.372 152.114 0 0-71.804L581.896 517.675l149.43-276.382L635.951 241.293z" p-id="8687" fill="#f4ea2a"></path></svg>